<?xml version="1.0" encoding="UTF-8" standalone="no"?>
<!-- Created with Inkscape (http://www.inkscape.org/) -->

<svg
   xmlns:dc="http://purl.org/dc/elements/1.1/"
   xmlns:cc="http://creativecommons.org/ns#"
   xmlns:rdf="http://www.w3.org/1999/02/22-rdf-syntax-ns#"
   xmlns:svg="http://www.w3.org/2000/svg"
   xmlns="http://www.w3.org/2000/svg"
   xmlns:sodipodi="http://sodipodi.sourceforge.net/DTD/sodipodi-0.dtd"
   xmlns:inkscape="http://www.inkscape.org/namespaces/inkscape"
   width="345"
   height="206"
   id="svg2"
   sodipodi:version="0.32"
   inkscape:version="0.91 r13725"
   version="1.0"
   inkscape:output_extension="org.inkscape.output.svg.inkscape"
   sodipodi:docname="Nutter_Butter_logo.svg"
   inkscape:export-filename="/Users/headius/Downloads/Nutter_Butthurt_logo_small.png"
   inkscape:export-xdpi="100"
   inkscape:export-ydpi="100">
  <metadata
     id="metadata3507">
    <rdf:RDF>
      <cc:Work
         rdf:about="">
        <dc:format>image/svg+xml</dc:format>
        <dc:type
           rdf:resource="http://purl.org/dc/dcmitype/StillImage" />
      </cc:Work>
    </rdf:RDF>
  </metadata>
  <defs
     id="defs3505" />
  <sodipodi:namedview
     pagecolor="#ffffff"
     bordercolor="#666666"
     borderopacity="1"
     objecttolerance="10"
     gridtolerance="10"
     guidetolerance="10"
     inkscape:pageopacity="0"
     inkscape:pageshadow="2"
     inkscape:window-width="1676"
     inkscape:window-height="1005"
     id="namedview3503"
     showgrid="false"
     inkscape:zoom="1.634868"
     inkscape:cx="-2.5183877"
     inkscape:cy="108.46911"
     inkscape:window-x="0"
     inkscape:window-y="1"
     inkscape:window-maximized="1"
     inkscape:current-layer="layer1" />
  <g
     inkscape:label="Layer 1"
     inkscape:groupmode="layer"
     id="layer1"
     transform="translate(-87.691437,78.395641)">
    <path
       style="fill:#ffffff;fill-rule:nonzero;stroke:none"
       d="m -240.54132,-31.764078 0,0"
       id="path3463"
       inkscape:connector-curvature="0" />
    <path
       style="fill:#f9dfb6;fill-opacity:1;fill-rule:evenodd;stroke:#000000;stroke-width:0.80000001px;stroke-linecap:butt;stroke-linejoin:miter;stroke-opacity:1"
       d="m 151.57771,-49.752532 c -28.24273,14.933699 -43.48538,49.0752227 -44.62043,80.058107 -1.13504,30.982884 12.4267,65.683849 43.97376,82.774145 31.54705,17.09029 104.61727,17.82025 121.05717,-10.86411 16.95724,20.46278 86.80815,9.2199 115.88379,-16.037485 29.07565,-25.257397 26.13302,-82.4995235 13.32145,-113.297105 -10.22488,-26.270871 -32.60221,-38.048446 -57.68321,-42.680399 -23.11531,-4.268928 -78.33793,-3.37023 -88.07686,25.608234 -14.91231,-24.824704 -75.61294,-20.495085 -103.85567,-5.561387 z"
       id="path4258"
       inkscape:connector-curvature="0"
       sodipodi:nodetypes="zcccccscz" />
    <path
       sodipodi:nodetypes="ccccccccccccccccccccccccccccccccccscccccccscccccccccccccccscccccccccccccccccccccccccccccccccc"
       style="fill:#005a9c;fill-opacity:1;fill-rule:nonzero;stroke:#005a9c;stroke-width:3.03964567;stroke-linecap:butt;stroke-linejoin:miter;stroke-miterlimit:4;stroke-opacity:1"
       d="m 224.0569,85.249839 c 3.05385,-0.927993 3.95343,-3.820864 4.1002,-5.620032 0.64865,1.600314 1.53403,2.727162 2.76978,3.532051 1.74708,1.131578 4.06706,1.47721 6.88891,1.022682 3.35213,-0.535014 7.02622,-2.267898 10.62929,-5.004525 l 0.4782,-0.445056 c 0.39772,-0.449798 0.63918,-0.814361 0.86171,-1.249952 l 2.50936,2.239495 c 1.74709,1.131577 4.06233,1.477209 6.88419,1.022681 3.35213,-0.535014 7.5565,-2.68455 10.63402,-5.004527 0.92326,-0.700728 1.5435,-2.263162 1.9128,-3.281113 0.29828,0.440323 1.24995,0.875911 1.24995,0.875911 1.67205,4.266964 9.0677,0.782363 16.7103,-2.002459 9.37185,1.138534 17.12096,-3.007037 17.12096,-3.007037 2.65836,3.420636 11.66283,0.761539 13.6297,0.640687 4.59557,-1.771231 4.74909,-1.825059 8.1022,-3.171682 0.68215,1.120363 2.54897,1.284316 8.00789,0.631987 6.1148,-1.144231 6.93247,-1.520758 8.66701,-2.743641 1.93599,0.08602 1.97452,0.579586 10.34168,-0.784971 2.78452,-0.454114 14.19594,-1.380558 14.57619,-7.753323 2.62536,0.529631 10.34954,2.532465 14.50532,2.647717 3.99181,-0.04872 9.24661,-2.064035 10.48921,-3.026678 5.06307,-2.997204 4.59993,-4.249885 3.63369,-7.527648 -0.61966,-1.616511 -0.68447,-7.960623 -6.63466,-5.290812 -0.0539,-2.538386 -0.6796,-8.699279 -0.0809,-13.782512 4.91335,-1.930278 7.39147,-3.174497 6.57849,-8.207432 -0.23249,-4.452456 -1.15942,-6.904206 -1.72489,-7.319819 -1.29072,-0.763238 -1.90593,-0.677521 -4.47643,-0.321239 0.21581,-9.8601507 -5.60721,-5.5446178 -8.65419,-4.6763492 -5.50969,3.2458682 -5.57994,5.9110632 -6.15406,10.7043672 -3.52648,-1.93222 -8.01695,-1.427638 -8.82512,-1.296852 -3.97396,0.76257 -5.91608,1.94897 -7.44415,2.660641 -1.06404,-2.225659 -2.58537,-2.139305 -4.4429,-1.326634 -2.84059,1.62366 -2.95792,1.880112 -3.734,2.33962 -3.81119,2.313637 -8.43871,6.892208 -8.9199,4.920408 -0.7479,-3.064689 -0.22981,-4.550751 -1.85494,-4.493491 -1.67248,0.07181 -1.58508,0.353956 -7.51207,3.970252 -3.61206,2.298581 -10.56737,6.67765 -10.56737,6.67765 -1.34938,-2.471488 -2.8399,-6.107322 -3.88476,-6.339514 -3.63148,-0.151508 -19.77106,11.155136 -19.77106,11.155136 -2.52455,-2.836656 -4.77115,-3.79648 -10.24945,-3.908217 -5.4783,2.51521 -5.22008,2.311374 -5.0198,-11.722471 -0.75414,-10.767402 -3.73171,-11.8746969 -7.55546,-9.84783 -3.29144,1.744701 -5.9751,2.389316 -5.89325,12.623962 0.41021,11.87649 -0.80977,16.83334 -0.80977,16.83334 l -0.45927,-1.813372 c -0.019,-2.319978 -1.51035,-3.219562 -2.39099,-3.517844 -1.00375,-0.340896 -2.22055,-0.307753 -3.30479,0.05682 l -0.11837,-0.07102 c 0.0142,-2.230021 0.0237,-2.604058 0.0237,-2.604058 0,-1.055827 -0.005,-3.53205 -2.31524,-4.218574 -2.37206,-0.700728 -4.81987,0.861707 -8.20042,3.025441 -3.39001,2.168471 -5.83782,4.578407 -5.85676,8.389802 -0.0379,1.070031 0.005,-0.904319 -0.005,-0.01894 -0.50187,-0.643914 -1.10317,-0.961135 -1.58611,-1.122113 -1.01321,-0.34563 -2.29157,-0.350364 -3.38053,0.02367 0.0142,-2.225286 -0.019,-2.641935 -0.019,-2.641935 0,-1.055827 -0.005,-3.53205 -2.31525,-4.218574 -2.37679,-0.705463 -4.81987,0.861707 -8.20515,3.025442 -3.38527,2.163735 -5.83308,4.578407 -5.85676,8.389801 -0.0426,1.254682 -0.0284,-0.473466 -0.0331,0.553954 -0.55395,-0.999011 -1.42512,-1.297294 -2.0501,-1.481946 -1.67606,-0.482934 -3.86821,0.0142 -5.86623,1.335172 -0.27935,0.179916 -2.17321,1.325702 -4.01025,2.43361 -2.8692,1.737617 -6.6143,4.06233 -8.76857,5.269666 0.0284,-0.544485 -0.0474,-1.046357 -0.0474,-1.567169 0.0142,-2.651405 -1.38253,-3.636212 -2.55671,-4.00078 -1.63819,-0.506607 -3.77352,-0.05208 -5.85676,1.240478 l -0.50188,0.307753 c -6.21186,3.77825 -9.4693,5.785742 -11.05067,6.732673 l 0.28881,-1.96488 c 0.0142,-2.632466 -1.60978,-7.618053 -6.15031,-10.56774 -3.15328,-2.04537 -7.19193,-2.746097 -11.68038,-2.021696 l -8.19095,1.377783 c -4.6589,0.800156 -8.71649,1.519823 -13.86307,2.23949 -1.60031,0.260406 -2.98756,0.942196 -4.01497,1.974349 -2.19215,2.215817 -2.0075,5.245993 -1.85599,7.679603 0.0379,0.558689 0.0616,1.62872 0.0616,1.62872 0.2462,3.835068 4.43636,3.427888 5.83309,3.32846 0.009,6.386548 0.30302,19.437987 -0.0521,26.16842 -0.43558,0.03789 -1.18366,0.30775 -1.18366,0.30775 -1.73288,0.378771 -2.2679,0.729139 -3.12487,1.552966 -1.69026,1.623988 -1.83231,3.764043 -1.83231,4.417427 0.009,0.606032 -0.0237,3.678833 -0.0237,3.678833 -0.009,1.7092 0.52082,2.888128 1.61926,3.598328 0.98481,0.643912 2.3247,0.833296 3.96289,0.56816 L 171.824,94.03262 c 6.66165,-1.278361 12.5563,-5.733666 15.10827,-11.424719 0.7244,4.805671 4.99032,7.064102 8.85379,7.575446 3.62202,0.58236 7.82165,-0.74808 12.54209,-3.872943 0.74335,1.00848 1.87019,1.330432 3.40422,1.041619 0,0 8.7591,-1.017952 12.32429,-2.102183 z"
       stroke-miterlimit="4"
       id="path4250"
       inkscape:connector-curvature="0" />
    <path
       inkscape:connector-curvature="0"
       id="path6187"
       stroke-miterlimit="4"
       d="m 339.60828,-23.719466 -0.13731,-6.737408 c -0.0616,-1.107908 -0.53974,-2.253694 -1.66659,-3.034912 -1.5435,-1.07003 -3.76878,-0.667584 -5.70999,-0.355098 -1.74708,0.284079 -3.66462,0.714932 -5.79047,1.90333 -0.51608,0.269875 -0.96114,0.596565 -1.33992,0.93746 l -0.0616,-0.03314 c -0.41191,-0.909052 -1.10317,-1.614516 -2.25842,-1.898595 -2.81238,-0.691259 -5.96093,1.515088 -9.05266,4.005515 -1.31623,1.065296 -4.71097,3.214828 -7.49968,6.178719 -2.6088,-3.243235 -7.87372,-6.500675 -16.14043,-5.174973 -4.58787,0.738605 -9.42669,3.285847 -13.26649,6.993078 l -2.57092,2.338918 c 0,0 -0.232,0.40718 -0.22252,-0.511342 0.005,-0.918523 -0.14204,-2.073777 -0.14204,-2.073777 -0.019,-2.319979 -1.49615,-3.162747 -2.37206,-3.46103 -1.02269,-0.340895 -2.30104,-0.307752 -3.39001,0.07575 0.009,-2.253694 -0.009,-1.846513 -0.009,-1.846513 0,-1.055828 -0.005,-3.53205 -2.31525,-4.218574 -2.37679,-0.700729 -4.81987,0.861706 -8.20514,3.025441 -3.38528,2.16847 -5.8331,3.730905 -5.85677,7.547033 -0.0331,1.065296 -0.0616,-0.989542 -0.0663,-0.108896 -0.48293,-0.535016 -1.08422,-0.890115 -1.52455,-1.036889 -1.01322,-0.340895 -2.29158,-0.307752 -3.38054,0.07102 0.0142,-2.248959 -0.019,-1.841779 -0.019,-1.841779 0,-1.060562 -0.005,-3.536784 -2.31524,-4.218574 -2.37207,-0.705463 -4.81515,0.861706 -8.20042,3.025442 -3.39001,2.163735 -5.83782,3.730904 -5.85676,7.547033 -0.0521,1.439334 -0.0474,-0.312487 -0.0474,0.856971 -0.56342,-0.932725 -1.41566,-1.358844 -2.02643,-1.534026 -1.67133,-0.487669 -3.86348,0.0142 -5.8615,1.330437 -0.27934,0.179917 -2.17794,1.325702 -4.01025,2.438345 -2.8692,1.732882 -7.24875,4.3085317 -8.76857,5.2649317 -0.0237,-0.535016 -0.0521,-1.046358 -0.0474,-1.56717 0.0142,-2.6514047 -1.38252,-3.6362117 -2.56145,-4.0007797 -1.63819,-0.501873 -3.77352,-0.05208 -5.85202,1.240478 0,0 -10.40677,6.3728397 -11.77508,7.2866277 l 0.17518,-3.863476 c 0.0331,-0.02367 0.31722,-0.217793 1.36358,-0.435587 1.15999,-0.227263 4.19016,-1.2357437 4.32747,-5.5963567 0,0 0.12783,-3.124869 0.0426,-4.0718 -0.1231,-1.524556 -0.29828,-2.712954 -1.56243,-3.607804 -0.80963,-0.568157 -1.8844,-0.785952 -3.02072,-0.6013 0,0 -13.37538,2.182674 -17.44244,2.802913 -1.23101,0.189387 -2.31052,0.790687 -3.24797,1.695005 -0.46873,0.454527 -0.85698,0.937462 -1.16946,1.472476 -1.17893,-1.576638 -2.75084,-2.073776 -4.89563,-1.69027 -5.58689,0.989542 -18.48409,3.195889 -18.48409,3.195889 -2.76029,0.445058 -4.46004,2.58512 -4.53579,6.0414147 -0.019,0.748074 -0.14204,3.418417 -0.14204,3.418417 0,0 0.94219,2.826587 5.55375,2.263163 0.19885,-0.02367 0.74808,2.196878 0.74808,2.196878 0.34088,4.871956 0.2746,10.0421942 0.20358,15.0467203 -0.0331,2.547242 -0.005,4.351144 0.0142,6.623776 0,0 -0.15625,4.313266 -0.16098,4.34641 -0.2462,0.170447 -2.18741,1.0795 -2.61826,1.249948 -1.62399,0.643912 -3.78772,1.775493 -3.80666,4.961913 0,0.392976 -0.0521,0.894849 -0.0758,1.420395 -0.14204,2.883403 -0.49241,6.964671 3.73564,7.745888 0.40244,0.07575 1.05108,-0.0095 1.05108,-0.0095 2.09272,-0.350364 2.96391,-0.459261 4.99034,-0.757544 4.4695,-0.667586 8.69755,-1.302028 12.9256,-2.338917 1.71393,-0.34563 2.98755,-0.975339 3.8398,-2.798179 1.59557,2.286836 5.45905,1.661863 6.79895,1.505619 0.53975,-0.06155 4.80567,-0.705463 5.80468,-0.833299 1.64293,-0.217793 4.69204,-0.4782 6.96941,-2.547241 1.57664,-1.429865 3.17695,-6.334963 3.19116,-8.67388 0.55869,5.051872 5.07081,7.158791 9.03371,7.674868 3.63621,0.587097 7.79797,-0.776483 12.54682,-3.92976 0.7386,1.070031 1.53403,1.264152 3.19588,1.131582 0.87119,-0.07102 3.78773,-0.516077 6.68534,-0.951665 2.85026,-0.430853 5.6721,-0.800156 6.89365,-1.633454 2.46201,-1.671332 2.9923,-3.546254 3.07279,-5.449584 0.6439,1.56717 1.51982,2.769771 2.73662,3.560458 1.74709,1.136316 4.06707,1.481945 6.88419,1.027419 3.35213,-0.53975 7.03095,-2.272632 10.63402,-5.009261 l 0.4782,-0.440322 c 0.49715,-0.568158 0.78122,-1.15999 1.01322,-1.695005 0.6155,1.169459 1.34937,2.026431 2.35312,2.679812 1.75182,1.136317 4.06706,1.481946 6.88892,1.02742 3.35213,-0.539751 7.02621,-2.267898 10.62929,-5.004526 l 0.4782,-0.445057 c 0.78121,-0.88538 1.17892,-1.695005 1.36358,-2.495161 4.97611,3.693027 11.67091,4.251716 15.09879,3.702496 8.21935,-1.325702 12.35744,-4.810405 14.52591,-6.6237758 0.19886,0.9658688 0.70547,1.5861078 1.52456,2.1163888 1.31624,0.856972 3.09173,0.691259 4.31327,0.497138 l 0.80489,-0.127835 c 0,0 7.45234,-1.22154 11.86029,-1.908064 6.96941,-1.1221126 6.99309,-4.9713839 7.01203,-8.3661285 0.009,-1.7518208 0.0237,-3.9297598 -1.67607,-5.0329338 -0.85224,-0.553953 -1.89386,-0.748074 -3.18169,-0.539749 l 0.0805,-11.7371967 c 0.68179,-0.298284 1.72342,-0.08049 1.72342,-0.08049 0.81436,0.402445 1.72814,0.880645 2.62299,0.942195 1.26415,0.08522 1.50089,0.02367 4.87195,-0.53028 1.8039,-0.298283 2.92602,-1.074766 3.54626,-1.680801 1.78496,-1.737617 1.76603,-3.92976 1.73288,-7.253485 z"
       style="fill:#005a9c;fill-rule:nonzero;stroke:#005a9c;stroke-width:3.03964567;stroke-linecap:butt;stroke-linejoin:miter;stroke-miterlimit:4" />
    <path
       inkscape:connector-curvature="0"
       id="path6193"
       stroke-miterlimit="4"
       d="m 222.41723,84.10207 c 3.05385,-0.927994 3.95344,-3.820864 4.10021,-5.620032 0.64864,1.600313 1.53403,2.727161 2.76977,3.532051 1.74708,1.131577 4.06707,1.477209 6.88891,1.022681 3.35214,-0.535014 7.02623,-2.267897 10.6293,-5.004524 l 0.4782,-0.445056 c 0.3977,-0.449794 0.63918,-0.814362 0.8617,-1.24995 l 2.50936,2.239492 c 1.74709,1.131578 4.06234,1.47721 6.88419,1.022682 3.35213,-0.535015 7.5565,-2.684547 10.63402,-5.004525 0.92326,-0.700729 1.54351,-2.263163 1.9128,-3.281114 0.29829,0.440323 1.24995,0.875911 1.24995,0.875911 1.21478,2.895162 9.41066,1.582581 16.7103,-2.002458 9.37186,1.138534 17.12097,-3.007038 17.12097,-3.007038 2.65835,3.420636 11.66283,0.76154 13.62969,0.640687 4.59557,-1.771231 4.74909,-1.825059 8.1022,-3.171681 0.68216,1.120362 2.54897,1.284315 8.00789,0.631986 6.11479,-1.14423 6.93247,-1.520757 8.66702,-2.74364 1.93599,0.08602 1.97452,0.579585 10.34167,-0.784972 2.78453,-0.454113 14.19594,-1.380558 14.57619,-7.753323 2.62537,0.529632 10.34955,2.532465 14.50532,2.647718 3.99182,-0.04872 9.24661,-2.064036 10.48921,-3.026678 5.06306,-2.997205 4.59993,-4.249885 3.63369,-7.527649 -0.61966,-1.616511 -0.68447,-7.960623 -6.63466,-5.290812 -0.0539,-2.538386 -0.6796,-8.699279 -0.0809,-13.782512 4.91335,-1.930278 7.39147,-3.174496 6.57849,-8.207432 -0.23249,-4.452455 -1.15942,-6.904205 -1.7249,-7.319819 -1.29071,-0.763238 -1.90592,-0.67752 -4.47641,-0.321238 0.21581,-9.8601517 -5.60722,-5.5446185 -8.6542,-4.6763497 -5.50968,3.2458683 -5.57995,5.9110627 -6.15406,10.7043667 -3.52649,-1.93222 -8.01694,-1.427638 -8.82512,-1.296852 -3.97395,0.76257 -5.91608,1.94897 -7.44415,2.660641 -1.06404,-2.225658 -2.58537,-2.139304 -4.4429,-1.326634 -2.8406,1.62366 -2.95792,1.880113 -3.734,2.339621 -3.81119,2.313636 -8.4387,6.892207 -8.9199,4.920407 -0.7479,-3.064688 -0.22981,-4.55075 -1.85494,-4.493491 -1.67248,0.07181 -1.58508,0.353956 -7.51207,3.970252 -3.61205,2.298581 -10.56737,6.67765 -10.56737,6.67765 -1.34937,-2.471488 -2.8399,-6.107322 -3.88476,-6.339513 -3.63148,-0.151509 -19.77105,11.155135 -19.77105,11.155135 -2.52455,-2.836655 -4.77116,-3.79648 -10.24946,-3.908217 -5.47829,2.515211 -5.22008,2.311374 -5.01979,-11.722471 -0.0682,-3.794083 -3.16013,-3.643894 -7.21252,-1.84566 -3.40506,1.510982 -7.00395,2.846583 -6.9221,4.278843 0.41022,11.87649 -0.12387,17.176289 -0.12387,17.176289 l -0.45926,-1.813371 c -0.019,-2.319978 -1.51036,-3.219562 -2.391,-3.517845 -1.00375,-0.340895 -2.22055,-0.307752 -3.30479,0.05682 l -0.11836,-0.07102 c 0.0142,-2.230021 0.0237,-2.604058 0.0237,-2.604058 0,-1.055827 -0.005,-3.53205 -2.31525,-4.218574 -2.37206,-0.700728 -4.81987,0.861707 -8.20042,3.025442 -3.39001,2.16847 -5.83782,4.578407 -5.85676,8.389801 -0.0379,1.070031 0.005,-0.904319 -0.005,-0.01894 -0.50187,-0.643913 -1.10317,-0.961135 -1.5861,-1.122113 -1.01322,-0.34563 -2.29158,-0.350364 -3.38054,0.02367 0.0142,-2.225286 -0.019,-2.641935 -0.019,-2.641935 0,-1.055827 -0.005,-3.53205 -2.31525,-4.218574 -2.37679,-0.705463 -4.81987,0.861707 -8.20514,3.025443 -3.38527,2.163734 -5.83309,4.578406 -5.85676,8.3898 -0.0426,1.254683 -0.0284,-0.473465 -0.0331,0.553954 -0.55395,-0.999011 -1.42513,-1.297294 -2.05011,-1.481946 -1.67607,-0.482934 -3.8682,0.0142 -5.86623,1.335172 -0.27934,0.179916 -2.1732,1.325702 -4.01025,2.43361 -2.86919,1.737618 -6.61431,4.06233 -8.76857,5.269666 0.0284,-0.544484 -0.0474,-1.046357 -0.0474,-1.567168 0.0142,-2.651405 -1.38252,-3.636212 -2.55671,-4.000781 -1.63819,-0.506607 -3.77351,-0.05208 -5.85676,1.240479 l -0.50187,0.307752 c -6.21187,3.778251 -9.46931,5.785743 -11.05068,6.732674 l 0.28881,-1.96488 c 0.0142,-2.632467 -1.60977,-7.618054 -6.15031,-10.56774 -3.15328,-2.04537 -7.19194,-2.746098 -11.68038,-2.021696 l -8.19095,1.377782 c -4.65889,0.800157 -8.71649,1.519824 -13.86306,2.23949 -1.60031,0.260406 -2.98757,0.942196 -4.01498,1.97435 -2.19214,2.215816 -2.0075,5.245993 -1.85598,7.679603 0.0379,0.558688 0.0616,1.62872 0.0616,1.62872 0.2462,3.835067 4.43636,3.427887 5.83308,3.328459 0.009,6.386549 0.30302,19.437987 -0.0521,26.168418 -0.43558,0.03789 -1.18366,0.30775 -1.18366,0.30775 -1.73288,0.378772 -2.26789,0.72914 -3.12487,1.552967 -1.69026,1.623987 -1.8323,3.764045 -1.8323,4.417428 0.009,0.606032 -0.0237,3.678824 -0.0237,3.678824 -0.009,1.709209 0.52081,2.888137 1.61925,3.598337 0.9848,0.643912 2.32471,0.833296 3.9629,0.56816 l 25.63341,-4.03392 c 6.66164,-1.278361 12.55628,-5.733668 15.10826,-11.42472 0.72441,4.80567 4.99033,7.064102 8.8538,7.575439 3.62201,0.582368 7.82165,-0.748073 12.54209,-3.872937 0.74333,1.00848 1.87018,1.330432 3.40421,1.041619 0,0 8.75911,-1.017952 12.3243,-2.102182 z"
       style="fill:#009ad9;fill-rule:nonzero;stroke:#009ad9;stroke-width:3.03964567;stroke-linecap:butt;stroke-linejoin:miter;stroke-miterlimit:4"
       sodipodi:nodetypes="ccccccccccccccccccccccccccccccccccscccccccscccccccccccccccscccccccccccccccccccccccccccccccccc" />
    <path
       inkscape:connector-curvature="0"
       id="path6191"
       stroke-miterlimit="4"
       d="m 337.52504,-24.945741 -0.13732,-6.742142 c -0.0616,-1.103174 -0.54448,-2.248959 -1.66659,-3.030177 -1.54349,-1.07003 -3.77351,-0.667586 -5.70998,-0.355099 -1.75183,0.279345 -3.66463,0.710198 -5.79522,1.898595 -0.51608,0.27461 -0.9564,0.596566 -1.33517,0.942195 l -0.0663,-0.03314 c -0.40719,-0.913787 -1.09844,-1.614515 -2.2537,-1.898594 -2.81238,-0.691259 -5.96093,1.510353 -9.05265,4.005514 -1.31624,1.060562 -4.71571,3.210093 -7.49969,6.178719 -2.60879,-3.243236 -7.87372,-6.50541 -16.14043,-5.174973 -4.58787,0.738605 -9.42669,3.285848 -13.26649,6.988345 l -2.57091,2.343652 c 0,0 -0.232,0.402444 -0.22726,-0.511343 0.005,-0.918522 -0.13731,-2.073777 -0.13731,-2.073777 -0.019,-2.319978 -1.49614,-3.162746 -2.37679,-3.461029 -1.01795,-0.34563 -2.29631,-0.307752 -3.39001,0.07102 0.0142,-2.248959 -0.009,-1.841779 -0.009,-1.841779 0,-1.060561 0,-3.536784 -2.31051,-4.218573 -2.37679,-0.705463 -4.81987,0.856971 -8.20515,3.020707 -3.38527,2.16847 -5.83782,3.735638 -5.85676,7.547033 -0.0379,1.07003 -0.0616,-0.989542 -0.071,-0.104163 -0.47819,-0.53975 -1.0795,-0.890114 -1.51982,-1.036888 -1.01321,-0.34563 -2.29157,-0.307752 -3.38054,0.07102 0.0142,-2.253694 -0.019,-1.84178 -0.019,-1.84178 0,-1.060561 -0.005,-3.536784 -2.31523,-4.218573 -2.3768,-0.705463 -4.81988,0.856972 -8.20042,3.020707 -3.39001,2.16847 -5.83782,3.735639 -5.85677,7.547033 -0.0521,1.439333 -0.0521,-0.307752 -0.0521,0.861706 -0.55868,-0.932725 -1.41092,-1.363579 -2.02169,-1.538761 -1.67133,-0.482934 -3.86821,0.0142 -5.86623,1.330436 -0.27461,0.179917 -2.1732,1.330438 -4.00552,2.438345 -2.87393,1.737618 -7.24875,4.313267 -8.76857,5.2696667 -0.0284,-0.5397497 -0.0521,-1.0463577 -0.0474,-1.5719037 0.0142,-2.64667 -1.38725,-3.636212 -2.56144,-3.996045 -1.63819,-0.506607 -3.77352,-0.05208 -5.85203,1.240478 0,0 -10.40676,6.3681047 -11.77508,7.2866267 l 0.17518,-3.8634747 c 0.0284,-0.02367 0.31722,-0.217793 1.35885,-0.440321 1.16473,-0.222529 4.1949,-1.235744 4.33221,-5.591623 0,0 0.12309,-3.124869 0.0426,-4.076534 -0.12311,-1.524558 -0.30303,-2.712955 -1.56244,-3.60307 -0.80962,-0.572893 -1.8844,-0.785952 -3.02071,-0.606035 0,0 -13.37538,2.182674 -17.44245,2.807648 -1.231,0.189386 -2.31051,0.790686 -3.24797,1.695005 -0.46873,0.449792 -0.85697,0.937461 -1.16946,1.467742 -1.17893,-1.571904 -2.75083,-2.069043 -4.89562,-1.690271 -5.5869,0.994278 -18.48409,3.200624 -18.48409,3.200624 -2.7603,0.440322 -4.46003,2.580385 -4.54053,6.03668 -0.0142,0.748074 -0.1373,3.4184177 -0.1373,3.4184177 0,0 -0.30302,5.21285 4.30853,4.649426 0.19886,-0.02367 1.99329,-0.184651 1.99329,-0.184651 0.34089,4.8672206 0.26987,10.0374589 0.20358,15.0467193 -0.0331,2.547242 -0.005,4.351144 0.0142,6.623776 0,0 -0.15624,4.308533 -0.16097,4.34641 -0.2462,0.170448 -2.19215,1.0795 -2.61827,1.249948 -1.62872,0.643912 -3.78772,1.775494 -3.80665,4.961913 -0.005,0.392976 -0.0521,0.890115 -0.0805,1.415661 -0.13731,2.888138 -0.48767,6.969406 3.73563,7.750624 0.40718,0.07102 1.05583,-0.0095 1.05583,-0.0095 2.08798,-0.355099 2.96389,-0.459262 4.98559,-0.762279 4.47425,-0.662851 8.69756,-1.297295 12.93033,-2.334183 1.71395,-0.350364 3.03491,0.492404 3.88241,-1.325702 1.59558,2.286836 5.41644,0.189386 6.75636,0.03314 0.53975,-0.06155 4.80093,-0.705463 5.80468,-0.838034 1.63818,-0.213059 4.69204,-0.478199 6.9694,-2.547241 1.57191,-1.425131 3.17695,-6.334963 3.18642,-8.669146 0.55869,5.047139 5.07554,7.154057 9.03845,7.670135 3.63148,0.587096 7.79797,-0.776484 12.54682,-3.925026 0.73861,1.065297 1.53403,1.264152 3.19589,1.131582 0.87118,-0.07102 3.78773,-0.516077 6.68533,-0.9564 2.84553,-0.430853 5.67211,-0.800156 6.89365,-1.62872 2.45728,-1.671332 2.9923,-3.546253 3.06805,-5.454318 0.64865,1.56717 1.51983,2.769771 2.74137,3.565193 1.74708,1.131581 4.06233,1.477211 6.88418,1.022685 3.35213,-0.535016 7.03096,-2.267898 10.62929,-5.004526 l 0.48293,-0.445058 c 0.49714,-0.563423 0.77649,-1.159989 1.01322,-1.695005 0.6155,1.174194 1.34937,2.031165 2.35312,2.684547 1.74708,1.136317 4.06706,1.477211 6.88892,1.02742 3.3474,-0.539751 7.02622,-2.272633 10.62928,-5.009261 l 0.4782,-0.445057 c 0.77649,-0.880645 1.17894,-1.695005 1.36358,-2.490426 4.97613,3.688292 11.67092,4.251716 15.09407,3.697762 8.22409,-1.320968 12.35744,-4.810405 14.52591,-6.6190419 0.19886,0.9658687 0.7102,1.5813729 1.52456,2.1163889 1.32096,0.852237 3.09646,0.691259 4.318,0.492403 l 0.80016,-0.127835 c 0,0 7.45708,-1.22154 11.86503,-1.9080642 6.96941,-1.1173776 6.99308,-4.9666483 7.01201,-8.3613931 0.009,-1.751821 0.019,-3.92976 -1.6808,-5.032933 -0.84749,-0.553955 -1.88912,-0.748075 -3.18168,-0.53975 l 0.0852,-11.7419337 c 0.67705,-0.298283 1.71867,-0.07575 1.71867,-0.07575 0.81436,0.402446 1.73289,0.875911 2.62774,0.937462 1.25941,0.08996 1.49615,0.02841 4.86721,-0.530282 1.80864,-0.298282 2.92602,-1.07003 3.55099,-1.6808 1.78496,-1.732883 1.76129,-3.92976 1.73288,-7.24875 z"
       style="fill:#009ad9;fill-rule:nonzero;stroke:#009ad9;stroke-width:3.03964567;stroke-linecap:butt;stroke-linejoin:miter;stroke-miterlimit:4" />
    <path
       inkscape:connector-curvature="0"
       id="path6195"
       stroke-miterlimit="2"
       d="m 186.09197,25.85706 c -0.0284,5.492195 -5.14657,5.350155 -7.17773,5.638969 -3.06805,0.430853 -9.2373,1.912799 -10.17004,-0.53975 -0.55395,-1.671332 -6.96467,-21.7273122 -7.90686,-24.3408392 l -1.70921,0.2793444 c 0.22253,5.0187298 -0.23673,9.5876678 0.0474,14.8478648 -0.019,3.650416 6.09823,0.714932 6.0793,3.972372 -0.009,1.306764 0.17044,3.101196 0.0237,4.299062 0.0331,1.685536 -0.88538,3.266909 -2.39574,3.579396 -6.04614,1.491415 -12.37164,2.154267 -19.01909,3.276379 -3.01598,-0.506608 -1.97908,-4.985588 -1.96488,-7.395524 0.0142,-3.19589 6.49594,-2.31051 6.38704,-6.003538 l 0.15625,-4.067065 c -0.0616,-7.291362 0.38824,-15.6527545 -0.22253,-23.2660733 -1.60031,-1.983819 -6.69953,1.23101 -6.17398,-3.39001 0.0378,-0.989542 0.11363,-2.244224 0.14203,-3.4420897 0.0426,-1.993288 1.4204,-3.304787 2.93075,-3.546254 6.66166,-1.070031 12.47581,-1.983818 18.62139,-3.224297 2.69875,-0.601301 3.38053,3.096461 3.60307,3.801924 0.11363,0.118367 6.6285,20.411079 6.62378,20.9318906 l 1.71393,-0.2746098 c 0.0237,-4.5926113 0.0568,-9.8054611 0.0805,-14.5022351 0.0142,-2.130592 -2.0217,-2.159 -3.34267,-1.945941 -1.30202,0.213059 -2.05957,-0.7717477 -2.0501,-2.3389177 0.005,-1.302028 0.0758,-2.746097 0.0852,-4.05286 0.005,-1.254683 1.27362,-2.873933 2.47149,-3.068054 5.96566,-1.155254 12.02128,-1.931738 17.43771,-2.802913 1.29731,-0.208325 1.97436,1.216805 1.8702,2.433611 0.1231,1.155254 -0.009,2.694016 -0.0474,4.038656 -0.0426,1.382518 -0.43086,2.817117 -1.75183,3.025442 -1.32097,0.279345 -3.78298,0.937461 -3.79245,2.8928707 -0.13731,2.694016 -0.54922,35.1831893 -0.54922,35.1831893 z"
       style="fill:#005a9c;fill-rule:nonzero;stroke:#005a9c;stroke-width:0;stroke-linecap:square;stroke-linejoin:miter;stroke-miterlimit:2;shape-rendering:crispEdges" />
    <path
       inkscape:connector-curvature="0"
       id="path6197"
       stroke-miterlimit="2"
       d="m 224.02599,-2.5745173 c -0.0284,5.681581 0.10417,10.6245561 -0.12783,16.1356893 0.84276,1.945942 3.57465,-0.0047 4.21383,2.083247 0.0379,2.286836 1.17893,5.700519 -1.50088,7.38132 -4.33221,1.117378 -7.65593,1.491415 -12.08756,2.050103 -1.96488,0.369304 -0.63445,-3.233766 -3.11067,-1.586107 -3.43262,2.533039 -7.87372,5.023464 -11.74667,4.393755 -3.47049,-0.430852 -6.78002,-2.452548 -7.21087,-6.349166 -0.71494,-4.147554 -0.33616,-13.8867304 -0.39771,-13.9293423 0.019,-3.8350668 -4.4127,-0.3550988 -4.37008,-2.8455252 0.019,-0.9232568 0.0142,-2.315244 0.019,-3.3379288 0.0284,-3.053849 0.16097,-3.78772 2.78397,-5.534806 2.27736,-1.524557 11.43419,-7.0735677 11.67092,-7.2203417 2.11165,-1.311498 4.36061,-1.463008 4.3464,1.5008837 -0.009,1.467742 0.17045,2.703486 0.071,4.60208 -0.005,1.065297 -0.28407,1.605046 -1.20733,2.376795 -1.31149,0.785952 -2.42887,2.462018 -2.43361,3.7829858 -0.18465,4.5310603 -0.21306,9.2893845 -0.23673,14.0571775 0.20359,1.723413 2.77923,1.884391 4.85302,1.548231 1.36831,-0.222529 3.95817,-1.922268 4.87195,-3.214828 0.019,-3.034911 0.0331,-6.0177409 0.0521,-9.0715909 0.019,-3.7640472 -4.10021,-0.2604056 -4.086,-2.7460968 0.005,-1.2830904 0.009,-2.1069196 0.019,-3.4089486 0.0142,-3.124869 0.019,-3.622007 3.04438,-5.530071 2.58512,-1.62872 11.37263,-6.8983867 12.02601,-7.3245057 1.99329,-1.316232 4.318,-1.47721 4.30379,1.29256 -0.009,1.444069 0.071,4.1522887 0.11364,4.8056697 -0.005,0.994277 -0.82383,1.695005 -1.72815,2.480957 -1.09844,0.9564 -2.07851,2.499896 -2.1448,3.607804 z"
       style="fill:#005a9c;fill-rule:nonzero;stroke:#005a9c;stroke-width:0;stroke-linecap:square;stroke-linejoin:miter;stroke-miterlimit:2;shape-rendering:crispEdges" />
    <path
       inkscape:connector-curvature="0"
       id="path6199"
       stroke-miterlimit="4"
       d="m 292.29019,-15.424358 c 0.3977,0.506607 1.1079,1.54823 0.14677,2.343652 -2.33419,1.728147 -7.83585,5.3690927 -9.72972,6.6001027 -0.28407,0.184651 -0.62496,-0.137305 -0.6297,-0.392976 -0.0663,-2.660874 0.87118,-5.2696667 2.85499,-7.1067107 1.92227,-1.718678 5.45432,-3.120135 7.35766,-1.444068 z m 13.28069,18.1384457 c -0.54449,-1.7328824 -1.69028,-3.191154 -2.3768,-4.057596 -1.74708,-2.064307 -5.48746,2.9023416 -10.65769,4.280124 -1.8844,0.5018736 -3.5936,0.577628 -5.15131,-0.108896 -0.59656,-0.3456296 -0.55395,-1.671332 0.33616,-2.2442248 4.11442,-2.6514042 8.08205,-5.4685212 12.12071,-8.2051492 2.07377,-1.69027 4.80093,-3.4326217 5.36909,-6.2828807 0.33616,-2.10692 -0.22252,-5.075546 -0.22252,-5.075546 -0.63919,-2.296305 -5.14184,-8.81592 -15.29292,-7.182465 -8.35667,1.344641 -18.69714,10.212641 -18.7729,23.1382377 -0.0805,15.3402673 12.93034,17.9159173 18.69241,16.9879263 8.5271,-1.373049 11.82715,-5.1607696 13.59317,-6.4485946 2.40047,-2.0785116 3.03965,-3.3568677 2.3626,-4.8009357 z"
       style="fill:#005a9c;fill-rule:nonzero;stroke:#005a9c;stroke-width:0.67232043;stroke-linecap:butt;stroke-linejoin:miter;stroke-miterlimit:4" />
    <path
       inkscape:connector-curvature="0"
       id="path6201"
       stroke-miterlimit="4"
       d="m 306.77348,5.4033694 c 0.0142,-2.6940169 0.62971,-4.0670649 2.50463,-4.3322057 1.13158,-0.1846512 1.89386,-1.15052 1.8039,-2.050103 l 0.0663,-11.7419337 c -0.44505,-1.699739 -2.02169,-0.558689 -2.855,-0.785952 -1.48668,0.241467 -1.51509,-1.666597 -1.49615,-4.715712 0.0142,-2.845525 -0.44032,-3.24797 7.02149,-8.820654 5.89464,-4.398491 8.65021,-6.543287 8.68335,-0.378772 2.3105,0.880645 2.93075,-2.244224 4.69678,-3.153278 1.60031,-0.904318 3.07278,-1.254682 4.63995,-1.505618 4.66363,-0.748075 4.82934,-0.383507 4.79147,6.43439 -0.0284,5.108688 0.47346,7.736419 -2.53304,8.219353 -1.24995,0.20359 -3.65042,0.563424 -3.80666,0.535016 -2.26316,-0.05208 -4.46952,-4.109677 -7.8974,0.738605 l -0.0758,13.3043687 c 0.0616,0.771748 0.5871,1.467741 1.43934,1.330436 0.90906,-0.146773 0.23674,0.02841 0.92799,-0.08522 2.19688,-0.350364 2.24423,1.7092092 2.23003,3.8019252 -0.019,4.0149835 -0.43086,5.1039532 -4.27066,5.7194578 0,0 -12.53262,1.9506761 -12.66046,2.0358998 -3.2385,0.5208115 -3.23376,-0.7101977 -3.21008,-4.5499991 z"
       style="fill:#005a9c;fill-rule:nonzero;stroke:#005a9c;stroke-width:0.67232043;stroke-linecap:butt;stroke-linejoin:miter;stroke-miterlimit:4" />
    <path
       inkscape:connector-curvature="0"
       id="path6203"
       stroke-miterlimit="2"
       d="m 247.54773,-9.6670233 c 0,0 -3.9913,2.211081 -4.01972,2.187409 -0.13257,5.861496 -0.14677,11.1832444 -0.0805,16.7511931 -0.009,1.8701872 2.07851,1.4014562 3.74511,0.6155046 0.95166,-0.4497918 1.70447,-0.2130594 2.17793,1.4109256 0.44032,1.96488 2.23475,3.849271 0.31249,6.03668 -2.65614,2.016961 -5.83309,3.801925 -9.00057,4.308533 -5.14183,0.828563 -8.18148,-1.600313 -8.12939,-10.619822 0.019,-2.9922997 0.071,-12.3574383 0.071,-12.3574383 -0.9706,0.217794 -3.8114,2.3767948 -3.79719,-0.596566 0,0 0.005,-2.968626 0.0568,-5.170238 0.0331,-1.998023 1.22154,-2.9070757 3.79245,-4.2280437 0.019,-3.569926 -0.071,-2.91181 0.0474,-6.316024 0.0142,-2.551976 1.17894,-3.361602 4.51212,-5.492195 4.40797,-2.821851 6.40125,-4.062329 6.40599,-0.02367 0,1.302029 -0.0426,5.515868 -0.0426,5.515868 0.09,-0.0142 3.1296,-1.841778 3.21483,-1.784963 0.66758,-0.369302 2.58512,-0.459261 2.59932,1.709209 0.005,0.0047 0.0758,4.554734 0.0331,4.649427 -0.0616,1.287825 -0.13257,2.514099 -1.89859,3.4042137 z"
       style="fill:#005a9c;fill-rule:nonzero;stroke:#005a9c;stroke-width:0;stroke-linecap:square;stroke-linejoin:miter;stroke-miterlimit:2;shape-rendering:crispEdges" />
    <path
       inkscape:connector-curvature="0"
       id="path6205"
       stroke-miterlimit="2"
       d="m 268.91521,-13.099646 c 0,0 -3.99605,2.206348 -4.01972,2.187409 -0.13257,5.8567627 -0.15151,11.1785103 -0.0805,16.7464595 -0.009,1.8701869 2.07378,1.4014565 3.74037,0.6155047 0.95641,-0.449792 1.70922,-0.2130592 2.17795,1.4109257 0.44032,1.96488 2.23949,3.8540051 0.31248,6.0366791 -2.6514,2.016962 -5.83308,3.801925 -9.00057,4.308532 -5.14183,0.828564 -8.17674,-1.600311 -8.12939,-10.6198208 0.019,-2.9875651 0.071,-12.3527035 0.071,-12.3527035 -0.96588,0.213059 -3.8114,2.37206 -3.79246,-0.596566 0,0 0,-2.97336 0.0568,-5.1749727 0.0331,-1.998023 1.22154,-2.907075 3.79246,-4.228043 0.019,-3.569927 -0.0758,-2.907076 0.0426,-6.316024 0.019,-2.551976 1.18365,-3.361602 4.51685,-5.492195 4.40323,-2.821852 6.39651,-4.06233 6.40125,-0.02367 0.005,1.30203 -0.0426,5.520603 -0.0426,5.520603 0.09,-0.01894 3.13434,-1.846514 3.21956,-1.789698 0.66286,-0.369302 2.58038,-0.459261 2.59459,1.713944 0.005,0 0.0805,4.549999 0.0379,4.649426 -0.0663,1.287826 -0.1373,2.5141 -1.89859,3.404214 z"
       style="fill:#005a9c;fill-rule:nonzero;stroke:#005a9c;stroke-width:0;stroke-linecap:square;stroke-linejoin:miter;stroke-miterlimit:2;shape-rendering:crispEdges" />
    <path
       inkscape:connector-curvature="0"
       id="path6209"
       stroke-miterlimit="4"
       d="m 221.10573,57.275537 c -0.0331,5.681581 0.0994,10.624555 -0.13257,16.135689 0.8475,1.950676 3.57466,0 4.21384,2.087981 0.0379,2.286837 1.17893,5.70052 -1.49615,7.38132 -4.33694,1.112647 -7.65593,1.491418 -12.08757,2.04537 -1.96487,0.369305 -0.63917,-3.233767 -3.11066,-1.581376 -3.43735,2.533043 -7.87846,5.018733 -11.7514,4.389024 -3.4705,-0.430855 -6.78002,-2.452551 -7.21087,-6.344429 -0.7102,-4.152292 -0.33143,-13.891469 -0.39771,-13.93408 0.0237,-3.835068 -4.41269,-0.350365 -4.36535,-2.845526 0.0142,-0.923256 0.009,-2.315244 0.019,-3.337928 0.0237,-3.05385 0.15624,-3.782986 2.77924,-5.534807 2.27737,-1.519822 11.43419,-7.068833 11.67091,-7.215608 2.11166,-1.316233 4.36062,-1.463006 4.34641,1.500885 -0.009,1.463006 0.17519,2.703486 0.071,4.597346 -0.005,1.065296 -0.28407,1.605046 -1.20733,2.381529 -1.31149,0.785952 -2.42888,2.462019 -2.4336,3.778251 -0.18466,4.531061 -0.21307,9.289384 -0.23674,14.061912 0.20358,1.723413 2.77923,1.879657 4.85302,1.548231 1.37304,-0.222528 3.9629,-1.922268 4.87195,-3.219562 0.019,-3.034912 0.0379,-6.013006 0.0521,-9.066857 0.0237,-3.768781 -4.10021,-0.26514 -4.086,-2.750832 0.005,-1.278355 0.009,-2.102184 0.019,-3.408948 0.019,-3.124869 0.019,-3.622008 3.04437,-5.525337 2.58512,-1.633455 11.37264,-6.898386 12.02602,-7.329239 1.99329,-1.311498 4.318,-1.472476 4.30379,1.29256 -0.009,1.448803 0.071,4.152288 0.11363,4.810404 -0.005,0.994277 -0.82382,1.690271 -1.72814,2.476223 -1.09844,0.956399 -2.07851,2.499895 -2.14006,3.607804 z"
       style="fill:#005a9c;fill-rule:nonzero;stroke:#005a9c;stroke-width:0.67232043;stroke-linecap:butt;stroke-linejoin:miter;stroke-miterlimit:4" />
    <path
       inkscape:connector-curvature="0"
       id="path6213"
       stroke-miterlimit="4"
       d="m 266.00443,47.001345 c 0,0 -3.99605,2.211081 -4.01972,2.187409 -0.13257,5.856762 -0.15151,11.178509 -0.0805,16.746458 -0.009,1.870188 2.07851,1.406192 3.74037,0.62024 0.9564,-0.449792 1.70921,-0.217794 2.17794,1.406191 0.44506,1.96488 2.23475,3.854006 0.31249,6.041415 -2.65141,2.012226 -5.83309,3.797188 -8.99584,4.308535 -5.14182,0.823827 -8.18147,-1.60505 -8.13413,-10.62456 0.019,-2.987564 0.071,-12.352703 0.071,-12.352703 -0.96587,0.217794 -3.8114,2.37206 -3.79245,-0.596566 0,0 0,-2.973361 0.0568,-5.174974 0.0331,-1.993287 1.22154,-2.907075 3.79245,-4.228042 0.019,-3.569926 -0.0758,-3.347398 0.0474,-6.756346 0.0142,-2.551977 1.17893,-3.361603 4.51212,-5.492195 4.40796,-2.817117 6.40125,-4.06233 6.40599,-0.02367 0,1.302029 -0.0426,5.960925 -0.0426,5.960925 0.0852,-0.0142 3.1296,-1.846514 3.21482,-1.789698 0.66285,-0.369303 2.58038,-0.454526 2.59933,1.713944 0,0 0.0758,4.549999 0.0331,4.649427 -0.0663,1.287825 -0.13731,2.514099 -1.89859,3.404213 z"
       style="fill:#005a9c;fill-rule:nonzero;stroke:#005a9c;stroke-width:0.67232043;stroke-linecap:butt;stroke-linejoin:miter;stroke-miterlimit:4" />
    <path
       inkscape:connector-curvature="0"
       id="path6215"
       stroke-miterlimit="4"
       d="m 244.64168,50.438701 c 0,0 -3.99604,2.206348 -4.01972,2.187409 -0.13731,5.856763 -0.15151,11.17851 -0.0805,16.746459 -0.0142,1.870187 2.07376,1.401457 3.74036,0.62024 0.95641,-0.454527 1.70448,-0.217795 2.17795,1.40619 0.44032,1.96488 2.23475,3.854006 0.31248,6.036683 -2.6514,2.01696 -5.83309,3.80192 -9.00057,4.308532 -5.14183,0.828563 -8.18147,-1.600314 -8.12939,-10.619824 0.0142,-2.987565 0.071,-12.357438 0.071,-12.357438 -0.96587,0.217794 -3.81139,2.376794 -3.79719,-0.591832 0,0 0.005,-2.973361 0.0568,-5.174973 0.0379,-1.998023 1.22154,-2.907076 3.79245,-4.228043 0.0237,-3.569926 -0.071,-3.347398 0.0474,-6.756346 0.019,-2.551976 1.17893,-3.361602 4.51686,-5.49693 4.40322,-2.817117 6.39652,-4.057595 6.40125,-0.01894 0.005,1.30203 -0.0426,5.956191 -0.0426,5.956191 0.09,-0.0142 3.1296,-1.841779 3.21956,-1.784963 0.66284,-0.369303 2.58038,-0.454527 2.59459,1.713943 0.005,0 0.0758,4.549999 0.0379,4.649427 -0.0663,1.283091 -0.13731,2.509365 -1.8986,3.404214 z"
       style="fill:#005a9c;fill-rule:nonzero;stroke:#005a9c;stroke-width:0.67232043;stroke-linecap:butt;stroke-linejoin:miter;stroke-miterlimit:4" />
    <path
       inkscape:connector-curvature="0"
       id="path6217"
       stroke-miterlimit="4"
       d="m 186.00776,74.708521 c 0.13731,2.741363 -0.57762,4.734649 -1.59557,7.139853 -2.29631,5.269664 -7.69855,8.796979 -12.73621,9.762851 L 145.4034,95.73037 c -2.07851,0.33616 -2.88814,-0.487664 -2.87866,-2.400464 0.005,-1.240481 0.0331,-2.774513 0.019,-3.716705 0.009,-1.070031 0.52554,-3.01597 2.22055,-3.290581 1.46301,-0.601299 3.04437,-0.20359 3.854,-1.846515 0.49714,-7.428667 0.15624,-28.071744 0.15624,-28.071744 -1.29255,-2.291571 -5.63897,0.961134 -5.87096,-2.651405 0.0663,-2.509364 -1.24995,-7.821642 3.07278,-8.517636 8.05838,-1.126847 15.24085,-2.50463 22.81156,-3.72617 11.11696,-1.789698 15.13667,7.021487 15.11773,10.828146 -0.019,3.52258 -1.88912,8.00156 -3.91082,9.942766 -1.26415,0.984808 -1.20733,2.215816 -0.0142,2.547243 3.95344,1.510353 6.05088,5.932517 6.02721,9.881216 z M 167.98769,51.447182 c -2.14006,0.340894 -4.86723,0.752809 -6.98835,1.093704 0,0.07102 -0.0521,9.445628 -0.0521,9.445628 2.34366,-0.378772 4.79147,-0.771748 6.92206,-1.112643 2.60406,-0.421384 3.85874,-3.461029 3.86821,-5.307543 0.009,-1.491415 -0.86644,-4.583142 -3.74984,-4.119146 z m -0.24147,19.236885 c -2.22055,0.355099 -4.87669,0.785952 -6.85578,1.103174 l -0.0616,11.363161 c 0,0 3.65989,-0.558688 6.85104,-1.074764 2.94969,-0.473466 5.57268,-3.62201 5.58689,-6.4628 0.0142,-2.84079 -2.09745,-5.477991 -5.5206,-4.928771 z"
       style="fill:#005a9c;fill-rule:nonzero;stroke:#005a9c;stroke-width:0.67232043;stroke-linecap:butt;stroke-linejoin:miter;stroke-miterlimit:4" />
    <path
       inkscape:connector-curvature="0"
       id="path6219"
       stroke-miterlimit="2"
       d="m 184.60529,24.195198 c -0.0331,5.492195 -5.14657,5.350155 -7.17773,5.634234 -3.06806,0.435588 -9.23731,1.917534 -10.17004,-0.53975 -0.55395,-1.666597 -6.96466,-21.7225775 -7.90686,-24.3361046 l -1.70921,0.2746099 c 0.22253,5.0234637 -0.23673,9.5924017 0.0474,14.8525987 -0.0237,3.650416 6.09351,0.714932 6.07456,3.972372 -0.005,1.306764 0.17519,3.101196 0.0284,4.299063 0.0331,1.685536 -0.88537,3.266909 -2.39573,3.579396 -6.04615,1.491415 -12.37164,2.154266 -19.0191,3.276378 -3.01597,-0.506607 -1.97908,-4.985587 -1.96488,-7.395524 0.0142,-3.195889 6.49121,-2.310509 6.38704,-6.003537 l 0.15625,-4.067066 c -0.0616,-7.291361 0.38824,-15.6527539 -0.22253,-23.2660723 -1.60031,-1.983819 -6.69953,1.23101 -6.17398,-3.39001 0.0378,-0.989542 0.11363,-2.2442237 0.14204,-3.4420907 0.0426,-1.993288 1.42039,-3.304786 2.93074,-3.546253 6.66166,-1.070032 12.47582,-1.983819 18.62139,-3.224297 2.69875,-0.601301 3.38055,3.096461 3.60307,3.801924 0.1089,0.118367 6.62852,20.4110786 6.62378,20.9318902 l 1.71394,-0.27461 c 0.0237,-4.5926111 0.0521,-9.8054605 0.0805,-14.5022355 0.009,-2.1305917 -2.02169,-2.1589997 -3.3474,-1.9459397 -1.30203,0.213059 -2.05484,-0.771748 -2.04537,-2.338918 0.005,-1.302029 0.0758,-2.746098 0.0852,-4.052861 0.005,-1.254682 1.27362,-2.873933 2.46675,-3.068053 5.96566,-1.155255 12.02602,-1.931738 17.43772,-2.802913 1.30202,-0.213059 1.97908,1.216805 1.87018,2.43361 0.12311,1.155255 -0.005,2.694016 -0.0474,4.038657 -0.0426,1.387253 -0.42611,2.817117 -1.74708,3.025442 -1.32097,0.279344 -3.78299,0.93746 -3.79246,2.892871 -0.1373,2.6940157 -0.54922,35.183189 -0.54922,35.183189 z"
       style="fill:#ffffff;fill-rule:nonzero;stroke:#ffffff;stroke-width:0;stroke-linecap:square;stroke-linejoin:miter;stroke-miterlimit:2;shape-rendering:crispEdges" />
    <path
       inkscape:connector-curvature="0"
       id="path6221"
       stroke-miterlimit="2"
       d="m 222.53931,-4.2363793 c -0.0284,5.6815806 0.10416,10.6245557 -0.12784,16.1356893 0.84277,1.945941 3.56993,-0.0047 4.21385,2.083246 0.0379,2.286836 1.17418,5.70052 -1.50089,7.381321 -4.33221,1.117377 -7.65594,1.496149 -12.08756,2.050103 -1.96489,0.369303 -0.63445,-3.233767 -3.11067,-1.586107 -3.43262,2.533038 -7.87846,5.023464 -11.74667,4.393755 -3.47049,-0.430853 -6.78002,-2.452549 -7.21088,-6.349167 -0.71493,-4.147553 -0.33616,-13.88673 -0.3977,-13.9293418 0.019,-3.8350667 -4.4127,-0.3550989 -4.37008,-2.8455243 0.019,-0.9232576 0.0142,-2.3152448 0.019,-3.3379288 0.0284,-3.0538494 0.16097,-3.7877204 2.78397,-5.5348064 2.27737,-1.524558 11.43418,-7.0735677 11.67092,-7.2203417 2.11164,-1.311499 4.3606,-1.463008 4.34167,1.500884 -0.005,1.467741 0.17518,2.7034847 0.0758,4.6020797 -0.005,1.065296 -0.28409,1.605046 -1.20735,2.376795 -1.31149,0.785952 -2.42887,2.462017 -2.43834,3.782985 -0.17991,4.5310604 -0.20832,9.2846501 -0.23674,14.0571783 0.20833,1.723413 2.77925,1.884391 4.85776,1.54823 1.36832,-0.217793 3.95817,-1.922268 4.87196,-3.214827 0.019,-3.0349114 0.0331,-6.0177414 0.0521,-9.0715913 0.019,-3.764047 -4.10021,-0.2604056 -4.09074,-2.7460968 0.009,-1.2830902 0.0142,-2.1069202 0.019,-3.4089492 0.019,-3.124868 0.0237,-3.622007 3.04438,-5.530071 2.58985,-1.6287197 11.37736,-6.8983857 12.02601,-7.3245047 1.99329,-1.316232 4.32274,-1.477211 4.30853,1.29256 -0.009,1.444068 0.071,4.152288 0.1089,4.80567 -0.005,0.9942767 -0.81909,1.6950047 -1.72341,2.4809567 -1.10318,0.9564 -2.08325,2.499896 -2.14479,3.607804 z"
       style="fill:#ffffff;fill-rule:nonzero;stroke:#ffffff;stroke-width:0;stroke-linecap:square;stroke-linejoin:miter;stroke-miterlimit:2;shape-rendering:crispEdges" />
    <path
       inkscape:connector-curvature="0"
       id="path6223"
       stroke-miterlimit="4"
       d="m 290.79876,-17.086221 c 0.40245,0.506607 1.11264,1.548231 0.14678,2.343652 -2.32945,1.728147 -7.83111,5.3690937 -9.72498,6.6001027 -0.28407,0.184652 -0.62496,-0.137304 -0.6297,-0.392976 -0.0663,-2.6608727 0.87118,-5.2696657 2.85499,-7.1067097 1.92227,-1.718678 5.45432,-3.120135 7.35291,-1.444069 z M 304.0842,1.0522253 c -0.54448,-1.7328826 -1.69027,-3.1911546 -2.3768,-4.0575956 -1.74708,-2.064308 -5.48745,2.9023412 -10.65769,4.2801236 -1.88439,0.5018736 -3.59834,0.577628 -5.15131,-0.108896 -0.59656,-0.3456296 -0.55868,-1.6713316 0.33616,-2.2442246 4.11441,-2.651404 8.08205,-5.468522 12.12071,-8.20515 2.07377,-1.6902687 4.80093,-3.4326207 5.36909,-6.2828807 0.33616,-2.10692 -0.22252,-5.075545 -0.22252,-5.075545 -0.64392,-2.291571 -5.14657,-8.81592 -15.29293,-7.182466 -8.36139,1.344642 -18.69713,10.212642 -18.77289,23.1382387 -0.0805,15.3402673 12.93033,17.9159173 18.69241,16.9879253 8.5271,-1.373049 11.82715,-5.160769 13.59318,-6.4485942 2.40047,-2.0785115 3.03964,-3.3568675 2.36259,-4.8009355 z"
       style="fill:#ffffff;fill-rule:nonzero;stroke:#ffffff;stroke-width:0.67232043;stroke-linecap:butt;stroke-linejoin:miter;stroke-miterlimit:4" />
    <path
       inkscape:connector-curvature="0"
       id="path6225"
       stroke-miterlimit="4"
       d="m 305.28206,3.7415069 c 0.0142,-2.6940168 0.63445,-4.0670652 2.50937,-4.3322052 1.13158,-0.179917 1.89386,-1.15052 1.8039,-2.050104 l 0.0662,-11.7419327 c -0.44505,-1.699739 -2.02643,-0.558689 -2.85499,-0.785952 -1.48668,0.241467 -1.51509,-1.661863 -1.49614,-4.715712 0.0142,-2.845525 -0.44033,-3.247971 7.02148,-8.820655 5.89464,-4.39849 8.64547,-6.543287 8.68335,-0.378772 2.3105,0.880645 2.93075,-2.244224 4.69677,-3.153276 1.60032,-0.90432 3.07279,-1.254684 4.63996,-1.50562 4.66363,-0.748075 4.82935,-0.388241 4.79146,6.434391 -0.0284,5.108688 0.47347,7.736419 -2.53303,8.219353 -1.24995,0.20359 -3.65042,0.563424 -3.80666,0.535016 -2.26317,-0.05208 -4.46951,-4.109677 -7.8974,0.738604 l -0.0758,13.3043687 c 0.0568,0.771748 0.58709,1.467742 1.43933,1.330437 0.90432,-0.146774 0.23674,0.02841 0.92799,-0.08522 2.19215,-0.350364 2.24423,1.709209 2.23003,3.8019248 -0.0237,4.0149832 -0.43086,5.1039531 -4.27066,5.7194577 0,0 -12.53736,1.9506762 -12.66519,2.0358998 -3.23851,0.5208116 -3.22903,-0.7101975 -3.2101,-4.5499991 z"
       style="fill:#ffffff;fill-rule:nonzero;stroke:#ffffff;stroke-width:0.67232043;stroke-linecap:butt;stroke-linejoin:miter;stroke-miterlimit:4" />
    <path
       inkscape:connector-curvature="0"
       id="path6227"
       stroke-miterlimit="2"
       d="m 246.06105,-11.328886 c 0,0 -3.99131,2.2110817 -4.01972,2.1874087 -0.13257,5.861498 -0.14677,11.183245 -0.0805,16.7511937 -0.009,1.870187 2.07852,1.4014565 3.74038,0.6155045 0.9564,-0.4497917 1.70921,-0.2130592 2.18267,1.4109259 0.44032,1.9648802 2.23475,3.8540052 0.31249,6.0366792 -2.65614,2.016962 -5.83309,3.801925 -9.00057,4.308533 -5.14183,0.828563 -8.18148,-1.600312 -8.1294,-10.6198219 0.0142,-2.9922989 0.0663,-12.3574384 0.0663,-12.3574384 -0.96587,0.217795 -3.80666,2.376795 -3.79245,-0.596565 0,0 0,-2.968626 0.0568,-5.174974 0.0331,-1.9932867 1.22154,-2.9023397 3.79245,-4.2233077 0.019,-3.569926 -0.071,-2.91181 0.0474,-6.316024 0.0142,-2.551977 1.17893,-3.361602 4.51212,-5.492195 4.40796,-2.821851 6.40125,-4.06233 6.40599,-0.02367 0,1.302029 -0.0426,5.515868 -0.0426,5.515868 0.09,-0.0142 3.1296,-1.841779 3.21483,-1.784963 0.66758,-0.369303 2.58038,-0.459261 2.59932,1.709208 0,0.0047 0.0758,4.554735 0.0331,4.649428 -0.0616,1.287824 -0.13257,2.514099 -1.8986,3.404213 z"
       style="fill:#ffffff;fill-rule:nonzero;stroke:#ffffff;stroke-width:0;stroke-linecap:square;stroke-linejoin:miter;stroke-miterlimit:2;shape-rendering:crispEdges" />
    <path
       inkscape:connector-curvature="0"
       id="path6229"
       stroke-miterlimit="2"
       d="m 267.42853,-14.761508 c 0,0 -3.99604,2.206348 -4.01972,2.187409 -0.1373,5.8567627 -0.15151,11.1785097 -0.0805,16.7464587 -0.0142,1.8701873 2.07378,1.4014571 3.74038,0.62024 0.9564,-0.4545272 1.70921,-0.2177944 2.17794,1.4061911 0.44032,1.9648797 2.23475,3.8540052 0.31248,6.0366792 -2.6514,2.016961 -5.83308,3.801925 -9.00056,4.308532 -5.14184,0.828564 -8.17675,-1.600312 -8.1294,-10.6198211 0.019,-2.9875652 0.071,-12.3574382 0.071,-12.3574382 -0.96586,0.217794 -3.81139,2.376795 -3.79718,-0.591832 0,0 0.005,-2.97336 0.0616,-5.1749727 0.0331,-1.993288 1.2168,-2.907075 3.78771,-4.228042 0.0237,-3.569927 -0.071,-2.907076 0.0474,-6.316025 0.0142,-2.551976 1.18367,-3.361601 4.51687,-5.492194 4.40322,-2.821851 6.39651,-4.062331 6.40124,-0.02367 0,1.302029 -0.0426,5.515868 -0.0426,5.515868 0.09,-0.0142 3.1296,-1.841779 3.21956,-1.784963 0.66285,-0.369303 2.58038,-0.459261 2.59459,1.709209 0.005,0.0047 0.0758,4.554734 0.0331,4.654161 -0.0616,1.28309 -0.13257,2.5141 -1.89386,3.404214 z"
       style="fill:#ffffff;fill-rule:nonzero;stroke:#ffffff;stroke-width:0;stroke-linecap:square;stroke-linejoin:miter;stroke-miterlimit:2;shape-rendering:crispEdges" />
    <path
       inkscape:connector-curvature="0"
       id="path6233"
       stroke-miterlimit="4"
       d="m 219.61432,55.613674 c -0.0284,5.681581 0.10416,10.624556 -0.12784,16.135689 0.84277,1.950677 3.57466,0 4.21384,2.087982 0.0379,2.286836 1.17892,5.70052 -1.50088,7.38132 -4.3322,1.112646 -7.65593,1.491417 -12.08756,2.050105 -1.96489,0.36457 -0.63445,-3.238502 -3.11068,-1.586112 -3.43261,2.533044 -7.87372,5.018733 -11.74666,4.389024 -3.4705,-0.430854 -6.78002,-2.45255 -7.21087,-6.344428 -0.71494,-4.152292 -0.33143,-13.891469 -0.39771,-13.93408 0.019,-3.835068 -4.4127,-0.350365 -4.37008,-2.845526 0.019,-0.923257 0.0142,-2.315244 0.019,-3.337929 0.0284,-3.053849 0.16097,-3.782985 2.78397,-5.534806 2.27737,-1.519823 11.43418,-7.073568 11.67091,-7.220343 2.11165,-1.311498 4.36061,-1.458272 4.34641,1.500885 -0.009,1.467741 0.17045,2.70822 0.071,4.60208 -0.005,1.065296 -0.28409,1.605047 -1.20734,2.38153 -1.3115,0.785952 -2.42887,2.462018 -2.43361,3.778251 -0.18465,4.531061 -0.21306,9.289384 -0.23674,14.061912 0.2036,1.723413 2.77452,1.879657 4.85303,1.54823 1.36831,-0.222528 3.9629,-1.922268 4.87195,-3.219561 0.019,-3.034912 0.0331,-6.013007 0.0521,-9.066857 0.019,-3.768782 -4.10021,-0.26514 -4.086,-2.750832 0.005,-1.278355 0.009,-2.102184 0.019,-3.408948 0.0142,-3.12487 0.019,-3.622008 3.04438,-5.525338 2.58512,-1.633454 11.37263,-6.898385 12.02601,-7.329238 1.99329,-1.311498 4.318,-1.472477 4.30379,1.292559 -0.009,1.444068 0.071,4.152289 0.11364,4.810405 -0.009,0.994277 -0.82383,1.69027 -1.72815,2.476222 -1.09844,0.9564 -2.07851,2.499896 -2.14479,3.607804 z"
       style="fill:#ffffff;fill-rule:nonzero;stroke:#ffffff;stroke-width:0.67232043;stroke-linecap:butt;stroke-linejoin:miter;stroke-miterlimit:4" />
    <path
       inkscape:connector-curvature="0"
       id="path6237"
       stroke-miterlimit="4"
       d="m 264.51774,45.339482 c 0,0 -3.99604,2.211082 -4.01971,2.187409 -0.13258,5.856763 -0.15151,11.183245 -0.0805,16.746459 -0.0142,1.870188 2.07377,1.406192 3.74037,0.62024 0.95641,-0.449792 1.70921,-0.217795 2.17794,1.410925 0.44032,1.960146 2.23475,3.849271 0.31248,6.03668 -2.6514,2.012227 -5.83309,3.79719 -8.99583,4.308532 -5.14183,0.823831 -8.18148,-1.605046 -8.13413,-10.624557 0.019,-2.987564 0.071,-12.352703 0.071,-12.352703 -0.96586,0.217795 -3.81139,2.37206 -3.79245,-0.596565 0,0 0,-2.973361 0.0568,-5.174974 0.0331,-1.993287 1.2168,-2.907075 3.79245,-4.228042 0.019,-3.569927 -0.0758,-3.347399 0.0474,-6.756347 0.0142,-2.551977 1.17894,-3.361602 4.51213,-5.492194 4.40796,-2.817118 6.40125,-4.062331 6.40125,-0.02367 0.005,1.306763 -0.0426,5.960925 -0.0426,5.960925 0.0899,-0.0142 3.1296,-1.846514 3.21956,-1.789698 0.66285,-0.369303 2.58038,-0.454526 2.59932,1.713943 0,0 0.0758,4.549999 0.0331,4.649427 -0.0663,1.287825 -0.13731,2.5141 -1.89859,3.404214 z"
       style="fill:#ffffff;fill-rule:nonzero;stroke:#ffffff;stroke-width:0.67232043;stroke-linecap:butt;stroke-linejoin:miter;stroke-miterlimit:4" />
    <path
       inkscape:connector-curvature="0"
       id="path6239"
       stroke-miterlimit="4"
       d="m 243.15027,48.776838 c 0,0 -3.99131,2.206348 -4.01972,2.187409 -0.13257,5.856763 -0.14678,11.178511 -0.0805,16.746459 -0.009,1.870188 2.07851,1.401457 3.7451,0.62024 0.95167,-0.454527 1.70448,-0.217794 2.17794,1.406191 0.44033,1.96488 2.23476,3.854005 0.3125,6.03668 -2.65615,2.016963 -5.8331,3.801923 -9.00058,4.308534 -5.14183,0.828563 -8.18147,-1.600313 -8.12939,-10.619824 0.0142,-2.987565 0.071,-12.357437 0.071,-12.357437 -0.9706,0.217793 -3.81139,2.376794 -3.79719,-0.596567 0,0 0.005,-2.968626 0.0568,-5.170238 0.0331,-1.993288 1.22153,-2.907076 3.79245,-4.228043 0.019,-3.569927 -0.071,-3.352133 0.0474,-6.756347 0.0142,-2.551976 1.17893,-3.361601 4.51686,-5.496929 4.40323,-2.817117 6.39651,-4.057596 6.40125,-0.01894 0,1.302029 -0.0426,5.956191 -0.0426,5.956191 0.09,-0.0142 3.1296,-1.841779 3.21956,-1.784963 0.66285,-0.369304 2.58038,-0.454528 2.59459,1.713943 0.005,0 0.0758,4.55 0.0331,4.649427 -0.0616,1.28309 -0.13257,2.509365 -1.89859,3.404214 z"
       style="fill:#ffffff;fill-rule:nonzero;stroke:#ffffff;stroke-width:0.67232043;stroke-linecap:butt;stroke-linejoin:miter;stroke-miterlimit:4" />
    <path
       inkscape:connector-curvature="0"
       id="path6241"
       stroke-miterlimit="4"
       d="m 184.52108,73.046658 c 0.13731,2.741363 -0.57762,4.73465 -1.6003,7.139853 -2.29158,5.269664 -7.69382,8.796978 -12.73148,9.76285 l -26.27258,4.119145 c -2.07851,0.33616 -2.89287,-0.487664 -2.87867,-2.400465 0.005,-1.24048 0.0331,-2.774512 0.019,-3.716704 0.005,-1.070029 0.52555,-3.015968 2.22056,-3.290579 1.463,-0.6013 3.03964,-0.203591 3.854,-1.846516 0.49713,-7.428667 0.15625,-28.071744 0.15625,-28.071744 -1.29256,-2.291571 -5.63897,0.961135 -5.87097,-2.651404 0.0663,-2.509364 -1.24995,-7.821642 3.06804,-8.512902 8.05839,-1.131582 15.24559,-2.514099 22.81629,-3.730904 11.11696,-1.789698 15.13668,7.021486 15.11774,10.828146 -0.0237,3.52258 -1.88912,8.00156 -3.91082,9.942766 -1.26414,0.984807 -1.20734,2.215816 -0.0142,2.547242 3.95343,1.510353 6.05088,5.932517 6.02721,9.881216 z M 166.501,49.785319 c -2.14006,0.340895 -4.86721,0.75281 -6.98834,1.093704 0,0.07102 -0.0521,9.445629 -0.0521,9.445629 2.33892,-0.378772 4.79147,-0.771748 6.92206,-1.112643 2.60406,-0.421384 3.85874,-3.46103 3.86821,-5.307543 0.009,-1.491416 -0.86644,-4.583142 -3.74984,-4.119147 z m -0.24146,19.236886 c -2.22055,0.355099 -4.88142,0.785952 -6.85578,1.103173 l -0.0616,11.363162 c 0,0 3.65989,-0.558688 6.85104,-1.074765 2.94969,-0.473465 5.57268,-3.622009 5.58689,-6.462799 0.0142,-2.84079 -2.09745,-5.477991 -5.5206,-4.928771 z"
       style="fill:#ffffff;fill-rule:nonzero;stroke:#ffffff;stroke-width:0.67232043;stroke-linecap:butt;stroke-linejoin:miter;stroke-miterlimit:4" />
    <path
       style="fill:#005a9c;fill-rule:nonzero;stroke:#005a9c;stroke-width:0;stroke-linecap:square;stroke-linejoin:miter;stroke-miterlimit:2;shape-rendering:crispEdges"
       d="m 338.62664,37.32227 c -0.0284,5.681581 0.10416,10.624556 -0.12784,16.13569 0.84277,1.945941 3.57466,-0.0047 4.21384,2.083246 0.0379,2.286836 1.17892,5.70052 -1.50088,7.38132 -4.33221,1.117378 -7.65594,1.491416 -12.08756,2.050104 -1.96489,0.369303 -0.63445,-3.233767 -3.11068,-1.586108 -3.43261,2.533039 -7.87372,5.023464 -11.74666,4.393756 -3.4705,-0.430853 -6.78002,-2.452549 -7.21088,-6.349167 -0.71493,-4.147553 -0.33616,-13.88673 -0.3977,-13.929342 0.019,-3.835067 -4.4127,-0.355099 -4.37008,-2.845525 0.019,-0.923256 0.0142,-2.315244 0.019,-3.337928 0.0284,-3.05385 0.16097,-3.787721 2.78397,-5.534806 2.27736,-1.524558 11.43418,-7.073568 11.67091,-7.220343 2.11165,-1.311498 4.36061,-1.463008 4.34641,1.500884 -0.009,1.467742 0.17045,2.703486 0.071,4.60208 -0.005,1.065297 -0.28408,1.605047 -1.20733,2.376795 -1.3115,0.785952 -2.42888,2.462018 -2.43361,3.782986 -0.18465,4.53106 -0.21306,9.289384 -0.23674,14.057178 0.20359,1.723412 2.77924,1.884391 4.85303,1.548231 1.36831,-0.222529 3.95816,-1.922269 4.87195,-3.214829 0.019,-3.03491 0.0331,-6.017741 0.0521,-9.07159 0.019,-3.764048 -4.10021,-0.260406 -4.086,-2.746097 0.005,-1.283091 0.009,-2.10692 0.019,-3.408949 0.0142,-3.124869 0.019,-3.622007 3.04437,-5.530071 2.58512,-1.62872 11.37264,-6.898387 12.02602,-7.324506 1.99329,-1.316232 4.31799,-1.47721 4.30379,1.29256 -0.009,1.444069 0.071,4.152289 0.11363,4.805671 -0.005,0.994276 -0.82382,1.695004 -1.72814,2.480956 -1.09844,0.9564 -2.07852,2.499896 -2.1448,3.607804 z"
       stroke-miterlimit="2"
       id="path4427"
       inkscape:connector-curvature="0" />
    <path
       style="fill:#ffffff;fill-rule:nonzero;stroke:#ffffff;stroke-width:0;stroke-linecap:square;stroke-linejoin:miter;stroke-miterlimit:2;shape-rendering:crispEdges"
       d="m 337.13996,35.660408 c -0.0284,5.681581 0.10416,10.624556 -0.12784,16.13569 0.84277,1.94594 3.56992,-0.0047 4.21384,2.083245 0.0379,2.286837 1.17419,5.70052 -1.50089,7.381321 -4.3322,1.117378 -7.65593,1.49615 -12.08755,2.050103 -1.96489,0.369303 -0.63445,-3.233766 -3.11068,-1.586107 -3.43262,2.533038 -7.87845,5.023464 -11.74667,4.393755 -3.47049,-0.430853 -6.78001,-2.452549 -7.21087,-6.349166 -0.71493,-4.147554 -0.33616,-13.886731 -0.3977,-13.929343 0.019,-3.835066 -4.4127,-0.355098 -4.37008,-2.845524 0.019,-0.923256 0.0142,-2.315244 0.019,-3.337928 0.0284,-3.05385 0.16097,-3.787721 2.78396,-5.534807 2.27738,-1.524557 11.43419,-7.073568 11.67092,-7.220342 2.11165,-1.311499 4.36061,-1.463008 4.34168,1.500884 -0.005,1.467741 0.17518,2.703485 0.0758,4.60208 -0.005,1.065297 -0.28409,1.605046 -1.20735,2.376795 -1.31149,0.785952 -2.42888,2.462018 -2.43834,3.782986 -0.17991,4.53106 -0.20833,9.284649 -0.23674,14.057177 0.20833,1.723413 2.77925,1.884391 4.85775,1.548231 1.36832,-0.217794 3.95818,-1.922268 4.87196,-3.214828 0.019,-3.034911 0.0331,-6.017741 0.0521,-9.071591 0.019,-3.764047 -4.10021,-0.260405 -4.09074,-2.746097 0.009,-1.28309 0.0142,-2.10692 0.019,-3.408948 0.019,-3.124869 0.0237,-3.622008 3.04438,-5.530072 2.58986,-1.62872 11.37737,-6.898386 12.02602,-7.324505 1.99328,-1.316232 4.32274,-1.477211 4.30853,1.29256 -0.009,1.444069 0.071,4.152289 0.10889,4.80567 -0.005,0.994277 -0.81908,1.695005 -1.7234,2.480957 -1.10318,0.9564 -2.08325,2.499896 -2.1448,3.607804 z"
       stroke-miterlimit="2"
       id="path4429"
       inkscape:connector-curvature="0" />
    <path
       style="fill:#005a9c;fill-rule:nonzero;stroke:#005a9c;stroke-width:0.67232043;stroke-linecap:butt;stroke-linejoin:miter;stroke-miterlimit:4"
       d="m 344.2075,56.46469 c 0.0142,-2.694016 0.62971,-4.067065 2.50463,-4.332205 1.13159,-0.184652 1.89387,-1.150521 1.80391,-2.050104 l 0.0663,-11.741934 c -0.44506,-1.699739 -2.0217,-0.558689 -2.855,-0.785952 -1.48668,0.241467 -1.51508,-1.666597 -1.49615,-4.715712 0.0142,-2.845525 -0.44032,-3.24797 7.02149,-8.820653 5.89464,-4.398492 8.65021,-6.543289 8.68335,-0.378773 2.31051,0.880645 2.93075,-2.244224 4.69677,-3.153278 1.60032,-0.904318 3.07279,-1.254683 4.63996,-1.505619 4.66363,-0.748075 4.82934,-0.383506 4.79146,6.434391 -0.0284,5.108688 0.47348,7.736419 -2.53303,8.219353 -1.24995,0.20359 -3.65042,0.563424 -3.80666,0.535016 -2.26316,-0.05208 -4.46951,-4.109677 -7.89739,0.738606 l -0.0757,13.304368 c 0.0616,0.771748 0.58709,1.467741 1.43933,1.330436 0.90906,-0.146773 0.23674,0.02841 0.92799,-0.08522 2.19688,-0.350365 2.24423,1.709209 2.23003,3.801924 -0.019,4.014984 -0.43086,5.103954 -4.27066,5.719459 0,0 -12.53262,1.950675 -12.66045,2.035899 -3.23851,0.520811 -3.23377,-0.710198 -3.2101,-4.549999 z"
       stroke-miterlimit="4"
       id="path4431"
       inkscape:connector-curvature="0" />
    <path
       style="fill:#ffffff;fill-rule:nonzero;stroke:#ffffff;stroke-width:0.67232043;stroke-linecap:butt;stroke-linejoin:miter;stroke-miterlimit:4"
       d="m 342.71608,54.802828 c 0.0142,-2.694017 0.63445,-4.067066 2.50937,-4.332206 1.13159,-0.179916 1.89386,-1.15052 1.80391,-2.050104 l 0.0662,-11.741933 c -0.44506,-1.699739 -2.02644,-0.558688 -2.855,-0.785952 -1.48668,0.241467 -1.51508,-1.661863 -1.49615,-4.715712 0.0142,-2.845525 -0.44032,-3.247971 7.02149,-8.820654 5.89464,-4.398491 8.64547,-6.543288 8.68334,-0.378773 2.31052,0.880646 2.93076,-2.244224 4.69678,-3.153277 1.60031,-0.904318 3.07279,-1.254683 4.63996,-1.505619 4.66363,-0.748075 4.82934,-0.388242 4.79146,6.434391 -0.0284,5.108688 0.47347,7.736419 -2.53303,8.219353 -1.24995,0.20359 -3.65041,0.563424 -3.80665,0.535016 -2.26317,-0.05208 -4.46952,-4.109677 -7.89741,0.738605 l -0.0758,13.304369 c 0.0568,0.771747 0.58709,1.467741 1.43933,1.330436 0.90432,-0.146774 0.23673,0.02841 0.92799,-0.08522 2.19214,-0.350365 2.24422,1.709209 2.23002,3.801924 -0.0237,4.014984 -0.43085,5.103953 -4.27065,5.719458 0,0 -12.53736,1.950675 -12.6652,2.035899 -3.2385,0.520812 -3.22903,-0.710197 -3.21009,-4.549998 z"
       stroke-miterlimit="4"
       id="path4433"
       inkscape:connector-curvature="0" />
    <path
       style="fill:#005a9c;fill-rule:nonzero;stroke:#005a9c;stroke-width:0.67232043;stroke-linecap:butt;stroke-linejoin:miter;stroke-miterlimit:4"
       d="m 394.06819,24.015542 c 0,0 -3.99605,2.211081 -4.01972,2.187408 -0.13257,5.856763 -0.15151,11.17851 -0.0805,16.746459 -0.009,1.870187 2.07851,1.406191 3.74038,0.620239 0.95639,-0.449791 1.7092,-0.217794 2.17793,1.406191 0.44506,1.96488 2.23475,3.854007 0.31249,6.041415 -2.65141,2.012227 -5.83309,3.797188 -8.99583,4.308535 -5.14183,0.823827 -8.18148,-1.60505 -8.13414,-10.624559 0.019,-2.987564 0.071,-12.352704 0.071,-12.352704 -0.96587,0.217794 -3.8114,2.37206 -3.79245,-0.596565 0,0 0,-2.973361 0.0568,-5.174974 0.0331,-1.993288 1.22154,-2.907075 3.79245,-4.228043 0.019,-3.569926 -0.0758,-3.347398 0.0474,-6.756346 0.0142,-2.551977 1.17893,-3.361602 4.51212,-5.492195 4.40796,-2.8171172 6.40125,-4.0623302 6.40599,-0.02367 0,1.302028 -0.0426,5.960925 -0.0426,5.960925 0.0852,-0.0142 3.1296,-1.846514 3.21483,-1.789698 0.66285,-0.369303 2.58038,-0.454527 2.59932,1.713943 0,0 0.0758,4.55 0.0331,4.649427 -0.0663,1.287825 -0.1373,2.514099 -1.89859,3.404215 z"
       stroke-miterlimit="4"
       id="path4435"
       inkscape:connector-curvature="0" />
    <path
       style="fill:#ffffff;fill-rule:nonzero;stroke:#ffffff;stroke-width:0.67232043;stroke-linecap:butt;stroke-linejoin:miter;stroke-miterlimit:4"
       d="m 392.58151,22.353679 c 0,0 -3.99605,2.211082 -4.01972,2.187408 -0.13257,5.856763 -0.15151,11.183245 -0.0805,16.74646 -0.0142,1.870187 2.07378,1.406191 3.74038,0.620239 0.9564,-0.449792 1.7092,-0.217794 2.17793,1.410926 0.44033,1.960145 2.23476,3.849271 0.31249,6.036679 -2.65141,2.012227 -5.83309,3.797191 -8.99583,4.308532 -5.14183,0.823831 -8.18148,-1.605046 -8.13414,-10.624556 0.019,-2.987564 0.071,-12.352703 0.071,-12.352703 -0.96587,0.217794 -3.81139,2.37206 -3.79245,-0.596566 0,0 0,-2.97336 0.0568,-5.174973 0.0331,-1.993288 1.2168,-2.907075 3.79245,-4.228044 0.019,-3.569925 -0.0758,-3.347397 0.0474,-6.756346 0.0142,-2.551977 1.17893,-3.361602 4.51212,-5.4921942 4.40796,-2.8171176 6.40125,-4.0623307 6.40125,-0.023674 0.005,1.3067636 -0.0426,5.9609252 -0.0426,5.9609252 0.09,-0.0142 3.12961,-1.846514 3.21957,-1.789698 0.66285,-0.369303 2.58038,-0.454526 2.59932,1.713943 0,0 0.0758,4.55 0.0331,4.649428 -0.0663,1.287824 -0.13731,2.514099 -1.8986,3.404214 z"
       stroke-miterlimit="4"
       id="path4437"
       inkscape:connector-curvature="0" />
    <path
       style="fill:#005a9c;fill-opacity:1;fill-rule:nonzero;stroke:#005a9c;stroke-width:0.67232043;stroke-linecap:butt;stroke-linejoin:miter;stroke-miterlimit:4;stroke-opacity:1"
       d="m 273.94337,29.809226 c -1.44198,0.398599 -2.28576,0.771822 -2.27932,-0.59969 0.003,-0.723152 -0.0551,-4.065787 0.0415,-5.382168 0.0698,-0.95127 5.03877,-2.378154 6.56304,-3.246791 4.45517,-2.15188 4.27173,-0.77054 4.27255,4.28056 0.11691,9.92713 0.27068,10.815577 0.31772,13.867797 2.31052,0.87591 2.19081,-1.644434 6.07392,-2.424758 1.85523,-0.372814 6.617,1.087002 8.01367,2.70089 1.79816,2.07782 2.69586,4.199104 3.25234,9.544069 0.39602,3.803765 0.15537,9.951583 0.4885,11.730718 1.41913,-0.335724 2.15591,0.207646 2.15245,1.171845 -0.004,1.230778 -0.0204,3.088954 0.026,4.31679 0.063,1.666304 0.38767,1.742911 -2.27084,2.447067 -3.0403,0.805282 -2.93266,0.866912 -6.43339,1.219237 -2.64183,0.265882 -2.98693,0.322895 -3.02544,-1.162908 -0.0209,-0.804991 0.0748,-3.500424 0.0842,-4.21111 0.0238,-1.792254 0.69962,-1.699277 2.16021,-2.808631 0.0594,-3.405764 -0.66329,-16.968624 -4.94872,-15.922235 -7.53542,1.839948 -6.53126,14.099062 -6.53393,17.795998 2.65158,0.685211 3.53644,0.558943 3.56611,1.714061 0.0124,0.481917 9.7e-4,2.746853 -0.007,4.009029 -0.0112,1.700609 -0.0323,1.503626 -2.19719,2.581905 -1.26474,0.629928 -6.01087,1.710006 -8.48768,2.074935 -1.59475,0.234967 -2.28631,0.138777 -2.40098,-1.412234 -0.0636,-0.860307 -0.0571,-2.406548 -0.12081,-4.598155 -0.0637,-2.191606 2.18994,-1.682623 2.18994,-2.733467 -0.13151,-4.603522 -0.15036,-7.357959 -0.125,-13.907236 0.0277,-7.12816 -0.14288,-19.273609 -0.37151,-21.045518 z"
       stroke-miterlimit="4"
       id="path4303"
       inkscape:connector-curvature="0"
       sodipodi:nodetypes="csscccssscsssssscscssssszcccc" />
    <path
       sodipodi:nodetypes="csscccssscsssssscscssssszcccc"
       inkscape:connector-curvature="0"
       id="path4301"
       stroke-miterlimit="4"
       d="m 272.34294,28.323108 c -1.44198,0.398599 -2.28576,0.771822 -2.27932,-0.59969 0.003,-0.723152 -0.0551,-4.065787 0.0415,-5.382168 0.0698,-0.95127 5.03877,-2.378154 6.56304,-3.246791 4.45517,-2.15188 4.27173,-0.77054 4.27255,4.28056 0.11691,9.92713 0.27068,10.815577 0.31772,13.867797 2.31052,0.87591 2.19081,-1.644434 6.07392,-2.424758 1.85523,-0.372814 6.617,1.087002 8.01367,2.70089 1.79816,2.07782 2.69586,4.199104 3.25234,9.544069 0.39602,3.803765 0.15537,9.951583 0.4885,11.730718 1.41913,-0.335724 2.15591,0.207646 2.15245,1.171845 -0.004,1.230778 -0.0204,3.088954 0.026,4.31679 0.063,1.666304 0.38767,1.742911 -2.27084,2.447067 -3.0403,0.805282 -2.93266,0.866912 -6.43339,1.219237 -2.64183,0.265882 -2.98693,0.322895 -3.02544,-1.162908 -0.0209,-0.804991 0.0748,-3.500424 0.0842,-4.21111 0.0238,-1.792254 0.69962,-1.699277 2.16021,-2.808631 0.0594,-3.405764 -0.66329,-16.968624 -4.94872,-15.922235 -7.53542,1.839948 -6.53126,14.099062 -6.53393,17.795998 2.65158,0.685211 3.53644,0.558943 3.56611,1.714061 0.0124,0.481917 9.7e-4,2.746853 -0.007,4.009029 -0.0112,1.700609 -0.0323,1.503626 -2.19719,2.581905 -1.26474,0.629928 -6.01087,1.710006 -8.48768,2.074935 -1.59475,0.234967 -2.28631,0.138777 -2.40098,-1.412234 -0.0636,-0.860307 -0.0571,-2.406548 -0.12081,-4.598155 -0.0637,-2.191606 2.18994,-1.682623 2.18994,-2.733467 -0.13151,-4.603522 -0.15036,-7.357959 -0.125,-13.907236 0.0277,-7.12816 -0.14288,-19.273609 -0.37151,-21.045518 z"
       style="fill:#ffffff;fill-opacity:1;fill-rule:nonzero;stroke:#ffffff;stroke-width:0.67232043;stroke-linecap:butt;stroke-linejoin:miter;stroke-miterlimit:4;stroke-opacity:1" />
  </g>
</svg>
